<svg width="512" height="512" viewBox="0 0 512 512" fill="none" xmlns="http://www.w3.org/2000/svg">
  <title>Purgio Minimal Icon</title>
  <desc>Icono minimalista de Purgio para limpieza de sistema y optimización.</desc>

  <rect width="512" height="512" rx="108" fill="#012E40"/>

  <!-- P / system cleaner mark -->
  <path
    d="M154 380V138C154 125.85 163.85 116 176 116H272C330.542 116 378 163.458 378 222C378 280.542 330.542 328 272 328H222V380C222 392.15 212.15 402 200 402H176C163.85 402 154 392.15 154 380Z"
    fill="#FFFFFF"
  />

  <path
    d="M222 178V266H266C290.301 266 310 246.301 310 222C310 197.699 290.301 178 266 178H222Z"
    fill="#012E40"
  />

  <!-- Cleanup sweep -->
  <path
    d="M354 316C327.5 352 287.5 370 241 368"
    stroke="#00BC99"
    stroke-width="26"
    stroke-linecap="round"
  />

  <!-- Clean sparkle -->
  <path
    d="M372 260L381 282L403 291L381 300L372 322L363 300L341 291L363 282L372 260Z"
    fill="#00BC99"
  />

  <!-- Small system/storage line -->
  <path
    d="M238 222H282"
    stroke="#00BC99"
    stroke-width="14"
    stroke-linecap="round"
  />
</svg>
