<svg xmlns="http://www.w3.org/2000/svg" viewBox="0 0 260 60" width="260" height="60">
  <g transform="translate(5, 5) scale(0.0976)">
    <rect width="512" height="512" rx="108" fill="#012E40"/>
    <path
      d="M154 380V138C154 125.85 163.85 116 176 116H272C330.542 116 378 163.458 378 222C378 280.542 330.542 328 272 328H222V380C222 392.15 212.15 402 200 402H176C163.85 402 154 392.15 154 380Z"
      fill="#FFFFFF"
    />
    <path
      d="M222 178V266H266C290.301 266 310 246.301 310 222C310 197.699 290.301 178 266 178H222Z"
      fill="#012E40"
    />
    <path
      d="M354 316C327.5 352 287.5 370 241 368"
      stroke="#00BC99"
      stroke-width="26"
      stroke-linecap="round"
    />
    <path
      d="M372 260L381 282L403 291L381 300L372 322L363 300L341 291L363 282L372 260Z"
      fill="#00BC99"
    />
    <path
      d="M238 222H282"
      stroke="#00BC99"
      stroke-width="14"
      stroke-linecap="round"
    />
  </g>

  <text x="68" y="36" font-family="'Inter', 'Outfit', 'Segoe UI', sans-serif" font-weight="700" font-size="28" fill="#FFFFFF" letter-spacing="0.5">
    Purgio
  </text>
  
  <text x="68" y="48" font-family="'Inter', 'Segoe UI', sans-serif" font-weight="400" font-size="10" fill="#00BC99" letter-spacing="1">
    SYSTEM CLEANER
  </text>
</svg>
